<?xml version="1.0" encoding="utf-8"?>
<!-- Generator: Adobe Illustrator 19.2.0, SVG Export Plug-In . SVG Version: 6.00 Build 0)  -->
<svg version="1.1" id="Layer_1" xmlns="http://www.w3.org/2000/svg" xmlns:xlink="http://www.w3.org/1999/xlink" x="0px" y="0px"
	 viewBox="0 0 900 900" style="enable-background:new 0 0 900 900;" xml:space="preserve">
<style type="text/css">
	.st0{display:none;}
	.st1{fill:#F9F9F9;}
</style>
<g id="Layer_2" class="st0">
	
		<image style="display:inline;overflow:visible;enable-background:new    ;" width="400" height="300" xlink:href="74F6CBFD.jpeg"  transform="matrix(2.25 0 0 2.25 0 112.5)">
	</image>
</g>
<g id="Layer_3">
	<path class="st1" d="M622.6,399.6c-1.5-9.3-1.5-28.8-3.5-32.3c-2.9-5-13.4-6.5-18.8-3c-0.2,0.1-0.4,0.3-0.6,0.4
		c-3,2.2-4.6,5.8-4.7,9.4c-0.7,32.8-10.3,45.7-10.3,45.7s-10.6,16.8-25.1,3.5c-14.6-13.2-22.1-54.2-24.3-60.4
		c-2.2-6.2-6.6-53.4-10.1-67.5c-3-12.2-15.6-11.6-19-11.1c-0.5,0.1-1,0.1-1.4,0.1c-2.6,0.1-13.4,1.8-14,25.1
		c-0.5,18.3-7.3,50-12.1,68.6c-2.1,8-6.8,16.3-10.7,23.5c-6.7,12.2-17.5,25.3-28.7,13.3c-10.8-11.6-17.4-38.3-21.1-58.5
		c-2.1-11.6-3.2-23.4-3.7-35.2c-0.6-14.9-4-41.3-21.1-40.4c-19.8,1.1-22.5,22-22.9,29.1c-0.1,2.5-0.3,5.1-0.6,7.6
		c-2.1,20.1-11.1,90.9-33,107.1c-20.4,15.2-27.9-21.5-30.1-36.9c-0.4-3.1-0.6-6.1-0.7-9.2c-0.1-5.2-1.7-15.5-13.3-15.2
		c-11.6,0.3-12.7,11.3-12.6,16.8c0.1,4.1,0,8.3-0.5,12.4c-4.4,36.3-25.9,51.2-34.6,55.8c-1.4,0.7-1.4,2.7,0,3.4
		c9.1,4.8,31.9,20.7,35.1,60.2c0.2,2.5,0.2,4.9,0.1,7.4c-0.2,5.2,0.6,17,12.6,17.4c11.6,0.3,13.2-10,13.3-15.2
		c0.1-3.4,0.3-6.8,0.8-10.2c2.4-15.9,9.9-50.7,30-35.9c21.9,16.2,30.9,87,33,107.1c0.3,2.5,0.4,5.1,0.6,7.6c0.4,7,3.1,28,22.9,29.1
		c17.1,1,20.6-25.4,21.1-40.4c0.5-11.8,1.6-23.6,3.7-35.2c3.6-20.2,10.2-46.9,21.1-58.5c11.2-12,22,1.1,28.7,13.3
		c4,7.2,8.7,15.5,10.7,23.5c4.8,18.6,11.7,50.3,12.1,68.6c0.7,26.6,14.6,25.1,14.6,25.1s16.3,3.1,19.8-11
		c3.5-14.1,7.9-61.3,10.1-67.5c2.2-6.2,9.7-47.2,24.3-60.4c14.6-13.2,25.1,3.5,25.1,3.5s9.6,13,10.4,45.8c0.1,3.6,1.7,7,4.6,9.2
		c0.2,0.2,0.5,0.3,0.7,0.5c5.4,3.5,15.9,2.1,18.8-3c2-3.5,1.9-23.1,3.5-32.3c1.5-8.8,6.1-36.8,32-48.7c1.5-0.7,1.5-2.8,0-3.5
		C628.7,436.4,624.1,408.4,622.6,399.6z"/>
</g>
</svg>
